<?xml version="1.0" encoding="utf-8"?>
<!-- Generator: Adobe Illustrator 20.1.0, SVG Export Plug-In . SVG Version: 6.00 Build 0)  -->
<svg version="1.1" id="Layer_1" xmlns="http://www.w3.org/2000/svg" xmlns:xlink="http://www.w3.org/1999/xlink" x="0px" y="0px"
	 viewBox="0 0 42 42" style="enable-background:new 0 0 42 42;" xml:space="preserve">
<style type="text/css">
	.st0{fill:#EF404B;}
</style>
<g>
	<path d="M28,4.5h-4.5V2.9c0-0.2-0.1-0.4-0.3-0.4c-5.1-2.6-11.3-2.6-16.4,0C6.6,2.5,6.5,2.7,6.5,2.9v1.6H2C1.2,4.5,0.5,5.2,0.5,6v34
		c0,0.8,0.7,1.5,1.5,1.5h26c0.8,0,1.5-0.7,1.5-1.5V6C29.5,5.2,28.8,4.5,28,4.5z M7.5,3.2c4.7-2.3,10.3-2.3,15,0v4.7
		c0,0.3-0.2,0.5-0.5,0.5H8c-0.3,0-0.5-0.2-0.5-0.5V3.2z M8,9.4h14c0.8,0,1.5-0.7,1.5-1.5V7.5h3v27H23c-0.3,0-0.5,0.2-0.5,0.5v3.5
		h-19v-31h3v0.4C6.5,8.7,7.2,9.4,8,9.4z M25.8,35.5l-2.3,2.3v-2.3H25.8z M28.5,40c0,0.3-0.2,0.5-0.5,0.5H2c-0.3,0-0.5-0.2-0.5-0.5V6
		c0-0.3,0.2-0.5,0.5-0.5h4.5v1H3C2.7,6.5,2.5,6.7,2.5,7v32c0,0.3,0.2,0.5,0.5,0.5h20c0.1,0,0.3-0.1,0.4-0.1l4-4
		c0.1-0.1,0.1-0.2,0.1-0.4V7c0-0.3-0.2-0.5-0.5-0.5h-3.5v-1H28c0.3,0,0.5,0.2,0.5,0.5V40z"/>
	<path d="M41,0.5h-8c-0.3,0-0.5,0.2-0.5,0.5v32c0,0.1,0,0.1,0,0.2l4,8c0.1,0.2,0.3,0.3,0.4,0.3c0.2,0,0.4-0.1,0.4-0.3l4-8
		c0-0.1,0-0.1,0-0.2V1C41.5,0.7,41.3,0.5,41,0.5z M33.5,7.5h1v25h-1V7.5z M37,39.9l-3.2-6.4h6.4L37,39.9z M35.5,32.5v-25h3v25H35.5z
		 M40.5,32.5h-1v-25h1V32.5z M40.5,6.5h-7v-1h7V6.5z M40.5,4.5h-7v-3h7V4.5z"/>
	<path d="M11,5.5h8c0.3,0,0.5-0.2,0.5-0.5c0-0.3-0.2-0.5-0.5-0.5h-8c-0.3,0-0.5,0.2-0.5,0.5C10.5,5.3,10.7,5.5,11,5.5z"/>
	<path d="M9,7.5h12c0.3,0,0.5-0.2,0.5-0.5c0-0.3-0.2-0.5-0.5-0.5H9C8.7,6.5,8.5,6.7,8.5,7C8.5,7.3,8.7,7.5,9,7.5z"/>
	<path class="st0" d="M9.2,14.6c-0.2-0.1-0.5,0-0.7,0.2l-0.7,1.4l-0.5-0.5c-0.2-0.2-0.5-0.2-0.7,0c-0.2,0.2-0.2,0.5,0,0.7l1,1
		c0.1,0.1,0.2,0.1,0.4,0.1c0,0,0.1,0,0.1,0c0.2,0,0.3-0.1,0.4-0.3l1-2C9.6,15,9.5,14.7,9.2,14.6z"/>
	<path d="M4.5,13v6c0,0.3,0.2,0.5,0.5,0.5h6c0.3,0,0.5-0.2,0.5-0.5v-6c0-0.3-0.2-0.5-0.5-0.5H5C4.7,12.5,4.5,12.7,4.5,13z M5.5,13.5
		h5v5h-5V13.5z"/>
	<path class="st0" d="M7.6,25.4c0.1,0.1,0.2,0.1,0.4,0.1c0,0,0.1,0,0.1,0c0.2,0,0.3-0.1,0.4-0.3l1-2c0.1-0.2,0-0.5-0.2-0.7
		c-0.2-0.1-0.5,0-0.7,0.2l-0.7,1.4l-0.5-0.5c-0.2-0.2-0.5-0.2-0.7,0c-0.2,0.2-0.2,0.5,0,0.7L7.6,25.4z"/>
	<path d="M11,20.5H5c-0.3,0-0.5,0.2-0.5,0.5v6c0,0.3,0.2,0.5,0.5,0.5h6c0.3,0,0.5-0.2,0.5-0.5v-6C11.5,20.7,11.3,20.5,11,20.5z
		 M10.5,26.5h-5v-5h5V26.5z"/>
	<path d="M11,28.5H5c-0.3,0-0.5,0.2-0.5,0.5v6c0,0.3,0.2,0.5,0.5,0.5h6c0.3,0,0.5-0.2,0.5-0.5v-6C11.5,28.7,11.3,28.5,11,28.5z
		 M10.5,34.5h-5v-5h5V34.5z"/>
	<path class="st0" d="M13,13.5h12c0.3,0,0.5-0.2,0.5-0.5c0-0.3-0.2-0.5-0.5-0.5H13c-0.3,0-0.5,0.2-0.5,0.5
		C12.5,13.3,12.7,13.5,13,13.5z"/>
	<path d="M13,15.5h12c0.3,0,0.5-0.2,0.5-0.5s-0.2-0.5-0.5-0.5H13c-0.3,0-0.5,0.2-0.5,0.5S12.7,15.5,13,15.5z"/>
	<path d="M13,17.5h6c0.3,0,0.5-0.2,0.5-0.5c0-0.3-0.2-0.5-0.5-0.5h-6c-0.3,0-0.5,0.2-0.5,0.5C12.5,17.3,12.7,17.5,13,17.5z"/>
	<path class="st0" d="M13,21.5h12c0.3,0,0.5-0.2,0.5-0.5c0-0.3-0.2-0.5-0.5-0.5H13c-0.3,0-0.5,0.2-0.5,0.5
		C12.5,21.3,12.7,21.5,13,21.5z"/>
	<path d="M13,23.5h10c0.3,0,0.5-0.2,0.5-0.5c0-0.3-0.2-0.5-0.5-0.5H13c-0.3,0-0.5,0.2-0.5,0.5C12.5,23.3,12.7,23.5,13,23.5z"/>
	<path class="st0" d="M13,29.5h12c0.3,0,0.5-0.2,0.5-0.5c0-0.3-0.2-0.5-0.5-0.5H13c-0.3,0-0.5,0.2-0.5,0.5
		C12.5,29.3,12.7,29.5,13,29.5z"/>
	<path d="M13,31.5h12c0.3,0,0.5-0.2,0.5-0.5c0-0.3-0.2-0.5-0.5-0.5H13c-0.3,0-0.5,0.2-0.5,0.5C12.5,31.3,12.7,31.5,13,31.5z"/>
	<path d="M13,33.5h12c0.3,0,0.5-0.2,0.5-0.5c0-0.3-0.2-0.5-0.5-0.5H13c-0.3,0-0.5,0.2-0.5,0.5C12.5,33.3,12.7,33.5,13,33.5z"/>
	<path d="M13,35.5h4c0.3,0,0.5-0.2,0.5-0.5c0-0.3-0.2-0.5-0.5-0.5h-4c-0.3,0-0.5,0.2-0.5,0.5C12.5,35.3,12.7,35.5,13,35.5z"/>
	<path class="st0" d="M7.6,33.4c0.1,0.1,0.2,0.1,0.4,0.1c0,0,0.1,0,0.1,0c0.2,0,0.3-0.1,0.4-0.3l1-2c0.1-0.2,0-0.5-0.2-0.7
		c-0.2-0.1-0.5,0-0.7,0.2l-0.7,1.4l-0.5-0.5c-0.2-0.2-0.5-0.2-0.7,0c-0.2,0.2-0.2,0.5,0,0.7L7.6,33.4z"/>
</g>
</svg>
