<?xml version="1.0" encoding="utf-8"?>
<!-- Generator: Adobe Illustrator 20.1.0, SVG Export Plug-In . SVG Version: 6.00 Build 0)  -->
<svg version="1.1" id="Layer_1" xmlns="http://www.w3.org/2000/svg" xmlns:xlink="http://www.w3.org/1999/xlink" x="0px" y="0px"
	 viewBox="0 0 42 42" style="enable-background:new 0 0 42 42;" xml:space="preserve">
<style type="text/css">
	.st0{fill:#FFFFFF;}
	.st1{fill:#EE404A;}
</style>
<g>
	<g>
		<circle class="st0" cx="21" cy="21" r="1.5"/>
		<path d="M21,0.5C9.7,0.5,0.5,9.7,0.5,21S9.7,41.5,21,41.5S41.5,32.3,41.5,21S32.3,0.5,21,0.5z M21,40.5C10.2,40.5,1.5,31.8,1.5,21
			C1.5,10.2,10.2,1.5,21,1.5c10.8,0,19.5,8.7,19.5,19.5C40.5,31.8,31.8,40.5,21,40.5z"/>
		<path d="M34.1,8.6c0.2-0.2,0.2-0.5,0-0.7c-0.2-0.2-0.5-0.2-0.7,0l-2.5,2.5c-2.5-2.3-5.8-3.8-9.4-3.9V3c0-0.3-0.2-0.5-0.5-0.5
			c-0.3,0-0.5,0.2-0.5,0.5v3.5c-3.6,0.1-6.9,1.6-9.4,3.9L8.6,7.9c-0.2-0.2-0.5-0.2-0.7,0c-0.2,0.2-0.2,0.5,0,0.7l2.5,2.5
			c-2.3,2.5-3.8,5.8-3.9,9.4H3c-0.3,0-0.5,0.2-0.5,0.5c0,0.3,0.2,0.5,0.5,0.5h3.5c0.1,3.6,1.6,6.9,3.9,9.4l-2.5,2.5
			c-0.2,0.2-0.2,0.5,0,0.7c0.1,0.1,0.2,0.1,0.4,0.1c0.1,0,0.3,0,0.4-0.1l2.5-2.5c2.5,2.3,5.8,3.8,9.4,3.9V39c0,0.3,0.2,0.5,0.5,0.5
			c0.3,0,0.5-0.2,0.5-0.5v-3.5c3.6-0.1,6.9-1.6,9.4-3.9l2.5,2.5c0.1,0.1,0.2,0.1,0.4,0.1c0.1,0,0.3,0,0.4-0.1c0.2-0.2,0.2-0.5,0-0.7
			l-2.5-2.5c2.3-2.5,3.8-5.8,3.9-9.4H39c0.3,0,0.5-0.2,0.5-0.5c0-0.3-0.2-0.5-0.5-0.5h-3.5c-0.1-3.6-1.6-6.9-3.9-9.4L34.1,8.6z
			 M21.5,7.5c3.3,0.1,6.4,1.5,8.7,3.6l-2.1,2.1c-1.8-1.6-4-2.6-6.6-2.7V7.5z M23.4,21.5h3c-0.1,1.1-0.6,2.2-1.3,3l-2.1-2.1
			C23.3,22.1,23.4,21.8,23.4,21.5z M23.1,19.6l2.1-2.1c0.7,0.8,1.1,1.9,1.3,3h-3C23.4,20.2,23.3,19.9,23.1,19.6z M24.5,25.2
			c-0.8,0.7-1.9,1.1-3,1.3v-3c0.3-0.1,0.6-0.2,0.9-0.4L24.5,25.2z M25.2,25.9l2.1,2.1c-1.6,1.4-3.6,2.3-5.9,2.4v-3
			C22.9,27.4,24.2,26.8,25.2,25.9z M25.9,25.2c0.9-1,1.4-2.3,1.5-3.7h3c-0.1,2.2-1,4.3-2.4,5.9L25.9,25.2z M27.5,20.5
			c-0.1-1.4-0.7-2.7-1.5-3.7l2.1-2.1c1.4,1.6,2.3,3.6,2.4,5.9H27.5z M21.5,11.5c2.2,0.1,4.3,1,5.9,2.4l-2.1,2.1
			c-1-0.9-2.3-1.4-3.7-1.5V11.5z M21.5,15.5c1.1,0.1,2.2,0.6,3,1.2l-2.1,2.1c-0.3-0.2-0.6-0.3-0.9-0.4V15.5z M20.5,7.5v3
			c-2.5,0.1-4.8,1.1-6.6,2.7l-2.1-2.1C14.1,9,17.2,7.6,20.5,7.5z M14.5,21.5c0.1,1.4,0.7,2.7,1.5,3.7l-2.1,2.1
			c-1.4-1.6-2.3-3.6-2.4-5.9H14.5z M11.5,20.5c0.1-2.2,1-4.3,2.4-5.9l2.1,2.1c-0.9,1-1.4,2.3-1.5,3.7H11.5z M15.5,21.5h3
			c0.1,0.3,0.2,0.6,0.4,0.9l-2.1,2.1C16.1,23.7,15.6,22.6,15.5,21.5z M18.6,20.5h-3c0.1-1.1,0.6-2.2,1.3-3l2.1,2.1
			C18.7,19.9,18.6,20.2,18.6,20.5z M17.5,16.8c0.8-0.7,1.9-1.1,3-1.2v3c-0.3,0.1-0.6,0.2-0.9,0.4L17.5,16.8z M16.8,16.1l-2.1-2.1
			c1.6-1.4,3.6-2.3,5.9-2.4v3C19.1,14.6,17.8,15.2,16.8,16.1z M11.1,11.8l2.1,2.1c-1.6,1.8-2.6,4-2.7,6.6h-3
			C7.6,17.2,9,14.1,11.1,11.8z M11.1,30.2c-2.1-2.3-3.5-5.3-3.6-8.7h3c0.1,2.5,1.1,4.8,2.7,6.6L11.1,30.2z M20.5,34.5
			c-3.3-0.1-6.4-1.5-8.7-3.6l2.1-2.1c1.8,1.6,4,2.6,6.6,2.7V34.5z M20.5,30.5c-2.2-0.1-4.3-1-5.9-2.4l2.1-2.1c1,0.9,2.3,1.4,3.7,1.5
			V30.5z M20.5,26.5c-1.1-0.1-2.2-0.6-3-1.3l2.1-2.1c0.3,0.2,0.6,0.3,0.9,0.4V26.5z M21,22.5c-0.8,0-1.5-0.7-1.5-1.5
			c0-0.8,0.7-1.5,1.5-1.5c0.8,0,1.5,0.7,1.5,1.5C22.5,21.8,21.8,22.5,21,22.5z M21.5,34.5v-3c2.5-0.1,4.8-1.1,6.6-2.7l2.1,2.1
			C27.9,33,24.8,34.4,21.5,34.5z M30.9,30.2l-2.1-2.1c1.6-1.8,2.6-4,2.7-6.6h3C34.4,24.8,33,27.9,30.9,30.2z M34.5,20.5h-3
			c-0.1-2.5-1.1-4.8-2.7-6.6l2.1-2.1C33,14.1,34.4,17.2,34.5,20.5z"/>
	</g>
	<g>
		<circle class="st0" cx="21" cy="21" r="1.5"/>
		<path d="M21,0.5C9.7,0.5,0.5,9.7,0.5,21S9.7,41.5,21,41.5S41.5,32.3,41.5,21S32.3,0.5,21,0.5z M21,40.5C10.2,40.5,1.5,31.8,1.5,21
			C1.5,10.2,10.2,1.5,21,1.5c10.8,0,19.5,8.7,19.5,19.5C40.5,31.8,31.8,40.5,21,40.5z"/>
		<path class="st1" d="M23.4,21.5h3c-0.1,1.1-0.6,2.2-1.3,3l-2.1-2.1C23.3,22.1,23.4,21.8,23.4,21.5z"/>
		<path class="st1" d="M23.1,19.6l2.1-2.1c0.7,0.8,1.1,1.9,1.3,3h-3C23.4,20.2,23.3,19.9,23.1,19.6z"/>
		<path class="st1" d="M24.5,25.2c-0.8,0.7-1.9,1.1-3,1.3v-3c0.3-0.1,0.6-0.2,0.9-0.4L24.5,25.2z"/>
		<path class="st1" d="M21.5,15.5c1.1,0.1,2.2,0.6,3,1.2l-2.1,2.1c-0.3-0.2-0.6-0.3-0.9-0.4V15.5z"/>
		<path class="st1" d="M15.5,21.5h3c0.1,0.3,0.2,0.6,0.4,0.9l-2.1,2.1C16.1,23.7,15.6,22.6,15.5,21.5z"/>
		<path class="st1" d="M18.6,20.5h-3c0.1-1.1,0.6-2.2,1.3-3l2.1,2.1C18.7,19.9,18.6,20.2,18.6,20.5z"/>
		<path class="st1" d="M17.5,16.8c0.8-0.7,1.9-1.1,3-1.2v3c-0.3,0.1-0.6,0.2-0.9,0.4L17.5,16.8z"/>
		<path class="st1" d="M20.5,26.5c-1.1-0.1-2.2-0.6-3-1.3l2.1-2.1c0.3,0.2,0.6,0.3,0.9,0.4V26.5z"/>
	</g>
</g>
</svg>
