<?xml version="1.0" encoding="utf-8"?>
<!-- Generator: Adobe Illustrator 20.1.0, SVG Export Plug-In . SVG Version: 6.00 Build 0)  -->
<svg version="1.1" id="Layer_1" xmlns="http://www.w3.org/2000/svg" xmlns:xlink="http://www.w3.org/1999/xlink" x="0px" y="0px"
	 viewBox="0 0 42 42" style="enable-background:new 0 0 42 42;" xml:space="preserve">
<style type="text/css">
	.st0{fill:#EE404A;}
</style>
<g>
	<path class="st0" d="M21.1,15.6l-8-4.8c-0.2-0.1-0.3-0.1-0.5,0c-0.2,0.1-0.3,0.3-0.3,0.4v9.6c0,0.2,0.1,0.3,0.3,0.4
		c0.2,0.1,0.4,0.1,0.5,0l8-4.8c0.2-0.1,0.2-0.3,0.2-0.4C21.3,15.8,21.2,15.7,21.1,15.6z M13.3,19.9v-7.8l6.5,3.9L13.3,19.9z"/>
	<path d="M16,7.5c-4.7,0-8.5,3.8-8.5,8.5c0,4.7,3.8,8.5,8.5,8.5s8.5-3.8,8.5-8.5C24.5,11.3,20.7,7.5,16,7.5z M16,23.5
		c-4.1,0-7.5-3.4-7.5-7.5s3.4-7.5,7.5-7.5s7.5,3.4,7.5,7.5S20.1,23.5,16,23.5z"/>
	<path d="M29.5,23.6c1.3-2.2,2-4.8,2-7.6c0-8.5-7-15.5-15.5-15.5C7.5,0.5,0.5,7.5,0.5,16c0,8.5,7,15.5,15.5,15.5
		c2.8,0,5.4-0.7,7.6-2c2.6,2.6,10.7,10.7,10.7,10.7c0.9,0.9,1.9,1.3,2.9,1.3c1.1,0,2.2-0.5,3-1.3c0.8-0.8,1.2-1.7,1.3-2.8
		c0.1-1.1-0.4-2.2-1.3-3.1C40.2,34.3,32.3,26.4,29.5,23.6z M16,30.5C8,30.5,1.5,24,1.5,16C1.5,8,8,1.5,16,1.5S30.5,8,30.5,16
		C30.5,24,24,30.5,16,30.5z M24.5,29c1.8-1.2,3.3-2.7,4.5-4.5c0.2,0.2,0.5,0.5,0.7,0.7c-1.2,1.8-2.7,3.3-4.5,4.5
		C25,29.4,24.7,29.2,24.5,29z M40.5,37.4c0,0.8-0.4,1.5-1,2.1c-0.6,0.6-1.3,0.9-2.1,1c-0.8,0.1-1.7-0.3-2.4-1c0,0-6.9-6.9-9.1-9.1
		c1.7-1.2,3.3-2.7,4.5-4.5c2.4,2.4,9.1,9.1,9.1,9.1C40.2,35.7,40.5,36.6,40.5,37.4z"/>
	<path d="M16,2.5C8.6,2.5,2.5,8.6,2.5,16c0,7.4,6.1,13.5,13.5,13.5c7.4,0,13.5-6.1,13.5-13.5C29.5,8.6,23.4,2.5,16,2.5z M16,28.5
		C9.1,28.5,3.5,22.9,3.5,16C3.5,9.1,9.1,3.5,16,3.5c6.9,0,12.5,5.6,12.5,12.5C28.5,22.9,22.9,28.5,16,28.5z"/>
	<path d="M9.5,7.7C9.8,7.5,9.8,7.2,9.6,7C9.5,6.8,9.1,6.8,8.9,6.9C6.1,9.1,4.5,12.4,4.5,16c0,0.3,0.2,0.5,0.5,0.5
		c0.3,0,0.5-0.2,0.5-0.5C5.5,12.7,7,9.7,9.5,7.7z"/>
	<path d="M12.8,6c0,0,0.1,0,0.1,0c1-0.3,2-0.5,3.1-0.5c0.3,0,0.5-0.2,0.5-0.5c0-0.3-0.2-0.5-0.5-0.5c-1.2,0-2.3,0.2-3.4,0.5
		c-0.3,0.1-0.4,0.4-0.3,0.6C12.4,5.8,12.5,6,12.8,6z"/>
</g>
</svg>
