<?xml version="1.0" encoding="utf-8"?>
<!-- Generator: Adobe Illustrator 20.1.0, SVG Export Plug-In . SVG Version: 6.00 Build 0)  -->
<svg version="1.1" id="Layer_1" xmlns="http://www.w3.org/2000/svg" xmlns:xlink="http://www.w3.org/1999/xlink" x="0px" y="0px"
	 viewBox="0 0 42 42" style="enable-background:new 0 0 42 42;" xml:space="preserve">
<style type="text/css">
	.st0{fill:none;stroke:#EF404B;stroke-miterlimit:10;}
	.st1{fill:#242E3C;}
	.st2{fill:#EF404B;}
</style>
<g>
	<path class="st0" d="M19,4c-1.3-0.3-2.4,0.4-3.2,1.8c-0.8-1.4-1.9-2.1-3.2-1.8c-1.5,0.3-3,2-3,4.6c0,3.5,5.8,7,6.1,7.2
		c0,0,0.1,0,0.1,0c0,0,0.1,0,0.1,0c0.2-0.1,6.1-3.6,6.1-7.2C22,6,20.5,4.3,19,4z"/>
	<path class="st1" d="M31.5,13.2V2.5c0-1.1-0.9-2-2-2h-27c-1.1,0-2,0.9-2,2V19c0,1.1,0.9,2,2,2h1v4c0,0.2,0.1,0.4,0.3,0.4
		c0.2,0.1,0.4,0,0.5,0l5.9-4.4h3.6c-0.9,1.9-1.3,3.9-1.3,6c0,8,6.5,14.5,14.5,14.5c2.4,0,4.8-0.6,6.9-1.7c3,1.7,7,1.7,7.1,1.7
		c0.2,0,0.4-0.1,0.5-0.3c0.1-0.2,0-0.4-0.1-0.5c-1.8-1.8-2.3-4.2-2.5-5.3c1.7-2.5,2.7-5.4,2.7-8.4C41.5,20.8,37.4,15.1,31.5,13.2z
		 M10,20c-0.1,0-0.2,0-0.3,0.1L4.5,24v-3.5C4.5,20.2,4.3,20,4,20H2.5c-0.6,0-1-0.4-1-1V2.5c0-0.6,0.4-1,1-1h27c0.6,0,1,0.4,1,1V19
		c0,0.6-0.4,1-1,1H10z M39.9,40.4c-1.4-0.1-3.8-0.5-5.7-1.7c-0.2-0.1-0.3-0.1-0.5,0c-2,1.1-4.3,1.7-6.6,1.7
		c-7.4,0-13.5-6.1-13.5-13.5c0-2.1,0.5-4.1,1.4-6h14.6c1.1,0,2-0.9,2-2v-4.7c5.3,1.9,9,7,9,12.7c0,2.9-0.9,5.6-2.6,7.9
		c-0.1,0.1-0.1,0.2-0.1,0.4C38,36.5,38.5,38.6,39.9,40.4z"/>
	<path class="st2" d="M18.2,26.7h17.9c0.4,0,0.7-0.2,0.7-0.5c0-0.3-0.3-0.5-0.7-0.5H18.2c-0.4,0-0.7,0.2-0.7,0.5
		C17.5,26.5,17.8,26.7,18.2,26.7z"/>
	<path d="M18.2,28.6h17.9c0.4,0,0.7-0.2,0.7-0.5c0-0.3-0.3-0.5-0.7-0.5H18.2c-0.4,0-0.7,0.2-0.7,0.5C17.5,28.4,17.8,28.6,18.2,28.6z
		"/>
	<path d="M18.2,30.4h9c0.4,0,0.7-0.2,0.7-0.5c0-0.3-0.3-0.5-0.7-0.5h-9c-0.4,0-0.7,0.2-0.7,0.5C17.5,30.2,17.8,30.4,18.2,30.4z"/>
</g>
</svg>
