<?xml version="1.0" encoding="utf-8"?>
<!-- Generator: Adobe Illustrator 20.1.0, SVG Export Plug-In . SVG Version: 6.00 Build 0)  -->
<svg version="1.1" id="Layer_1" xmlns="http://www.w3.org/2000/svg" xmlns:xlink="http://www.w3.org/1999/xlink" x="0px" y="0px"
	 viewBox="0 0 42 42" style="enable-background:new 0 0 42 42;" xml:space="preserve">
<style type="text/css">
	.st0{fill:#242E3C;}
	.st1{fill:#EF404B;}
	.st2{fill:#FFFFFF;}
</style>
<g>
	<g>
		<path class="st0" d="M41.5,6c0-3-2.5-5.5-5.5-5.5c-2,0-3.8,1.1-4.8,2.8C25-0.4,17-0.4,10.8,3.3C9.8,1.6,8,0.5,6,0.5
			C3,0.5,0.5,3,0.5,6c0,2,1.1,3.8,2.7,4.7C-0.4,17-0.4,24.9,3.3,31.2c-1.7,0.9-2.8,2.7-2.8,4.8c0,3,2.5,5.5,5.5,5.5
			c2.1,0,3.9-1.1,4.8-2.8c3.1,1.8,6.7,2.7,10.2,2.7c3.5,0,7.1-0.9,10.2-2.7c0.9,1.7,2.7,2.8,4.8,2.8c3,0,5.5-2.5,5.5-5.5
			c0-2-1.1-3.8-2.8-4.8c3.7-6.3,3.7-14.2,0.1-20.5C40.4,9.8,41.5,8,41.5,6z M11.2,4.2c6-3.5,13.6-3.5,19.6,0
			c-0.2,0.6-0.3,1.2-0.3,1.8c0,1.3,0.5,2.5,1.2,3.5l-3.7,3.7c-1.9-1.7-4.3-2.7-7.1-2.7c-2.7,0-5.2,1-7.1,2.7l-3.7-3.7
			C11,8.5,11.5,7.3,11.5,6C11.5,5.4,11.4,4.7,11.2,4.2z M23.1,22.4h-4.2c-0.8,0-1.4-0.6-1.4-1.4v-4.2c0-0.8,0.6-1.4,1.4-1.4h4.2
			c0.8,0,1.4,0.6,1.4,1.4V21C24.5,21.8,23.9,22.4,23.1,22.4z M23.2,23.4v1.7h-4.3v-1.7c0,0,0.1,0,0.1,0L23.2,23.4
			C23.1,23.4,23.1,23.4,23.2,23.4z M26.3,26.1c1,0,1.7,0.4,2,0.8c-1.7,2.1-4.4,3.5-7.4,3.5c-3,0-5.6-1.4-7.3-3.5
			c0.3-0.4,1-0.9,2-0.9H26.3z M26.3,25.1h-2.2v-1.9c0.8-0.4,1.3-1.2,1.3-2.2v-4.2c0-1.3-1.1-2.4-2.4-2.4h-4.2
			c-1.3,0-2.4,1.1-2.4,2.4V21c0,0.9,0.5,1.8,1.3,2.2v1.9h-2.2c-1.1,0-2.1,0.4-2.6,1c-1-1.5-1.5-3.3-1.5-5.2c0-5.2,4.3-9.5,9.5-9.5
			c5.2,0,9.5,4.3,9.5,9.5c0,1.9-0.6,3.7-1.5,5.2C28.4,25.5,27.4,25.1,26.3,25.1z M2.6,8.3v0.6C1.9,8.1,1.5,7.1,1.5,6
			c0-2.5,2-4.5,4.5-4.5c2.5,0,4.5,2,4.5,4.5c0,1-0.4,2-1,2.8V8.3c0-0.7-0.5-1.3-1.2-1.5c0-0.1,0.1-0.3,0.1-0.5V4.5
			C8.4,3.7,7.7,3,6.9,3H5.1C4.3,3,3.6,3.7,3.6,4.5v1.9c0,0.2,0,0.3,0.1,0.5C3.1,7,2.6,7.6,2.6,8.3z M8,7.8c0.3,0,0.5,0.2,0.5,0.5
			v1.4c-0.7,0.5-1.6,0.8-2.5,0.8c-0.9,0-1.7-0.3-2.4-0.7V8.3c0-0.3,0.2-0.5,0.5-0.5H8z M4.6,6.3V4.5C4.6,4.2,4.8,4,5.1,4h1.9
			c0.2,0,0.4,0.2,0.4,0.4v1.9c0,0.2-0.2,0.4-0.4,0.4H5C4.8,6.7,4.6,6.6,4.6,6.3z M4.1,11.2c0.6,0.2,1.2,0.3,1.9,0.3
			c1.4,0,2.6-0.5,3.6-1.3l3.7,3.7c-1.7,1.9-2.7,4.3-2.7,7.1s1,5.2,2.7,7.1l-3.8,3.8C8.5,31,7.3,30.5,6,30.5c-0.6,0-1.2,0.1-1.8,0.3
			C0.7,24.8,0.6,17.2,4.1,11.2z M8.5,39.7c-0.7,0.5-1.6,0.8-2.5,0.8c-0.9,0-1.7-0.3-2.4-0.7v-1.5c0-0.3,0.2-0.5,0.5-0.5h4
			c0.3,0,0.5,0.2,0.5,0.5V39.7z M4.6,36.3v-1.9c0-0.2,0.2-0.4,0.4-0.4h1.9c0.2,0,0.4,0.2,0.4,0.4v1.9c0,0.2-0.2,0.4-0.4,0.4H5
			C4.8,36.7,4.6,36.6,4.6,36.3z M9.5,38.8v-0.5c0-0.7-0.5-1.3-1.2-1.5c0-0.1,0.1-0.3,0.1-0.5v-1.9c0-0.8-0.6-1.4-1.4-1.4H5.1
			c-0.8,0-1.4,0.6-1.4,1.4v1.9c0,0.2,0,0.3,0.1,0.5c-0.7,0.2-1.2,0.8-1.2,1.5v0.6c-0.7-0.8-1.1-1.8-1.1-2.9c0-2.5,2-4.5,4.5-4.5
			c2.5,0,4.5,2,4.5,4.5C10.5,37,10.1,38,9.5,38.8z M30.8,37.8c-6,3.5-13.6,3.5-19.6,0c0.2-0.6,0.3-1.1,0.3-1.8
			c0-1.4-0.5-2.6-1.3-3.6l3.8-3.8c1.9,1.7,4.3,2.7,7.1,2.7c2.7,0,5.2-1,7.1-2.7l3.8,3.8c-0.8,1-1.3,2.2-1.3,3.6
			C30.5,36.6,30.6,37.2,30.8,37.8z M38.5,39.7c-0.7,0.5-1.6,0.8-2.5,0.8c-0.9,0-1.7-0.3-2.4-0.7v-1.5c0-0.3,0.2-0.5,0.5-0.5h4
			c0.3,0,0.5,0.2,0.5,0.5V39.7z M34.6,36.3v-1.9c0-0.2,0.2-0.4,0.4-0.4h1.9c0.2,0,0.4,0.2,0.4,0.4v1.9c0,0.2-0.2,0.4-0.4,0.4h-2
			C34.8,36.7,34.6,36.6,34.6,36.3z M40.5,36c0,1-0.4,2-1,2.8v-0.5c0-0.7-0.5-1.3-1.2-1.5c0-0.1,0.1-0.3,0.1-0.5v-1.9
			c0-0.8-0.6-1.4-1.4-1.4h-1.9c-0.8,0-1.4,0.6-1.4,1.4v1.9c0,0.2,0,0.3,0.1,0.5c-0.7,0.2-1.2,0.8-1.2,1.5v0.6
			c-0.7-0.8-1.1-1.8-1.1-2.9c0-2.5,2-4.5,4.5-4.5C38.5,31.5,40.5,33.5,40.5,36z M37.8,30.8c-0.6-0.2-1.2-0.3-1.8-0.3
			c-1.3,0-2.5,0.5-3.5,1.2L28.8,28c1.7-1.9,2.7-4.3,2.7-7.1s-1-5.2-2.7-7.1l3.7-3.7c1,0.8,2.2,1.3,3.6,1.3c0.7,0,1.3-0.1,1.9-0.3
			C41.4,17.2,41.3,24.8,37.8,30.8z M38,7.8c0.3,0,0.5,0.2,0.5,0.5v1.4c-0.7,0.5-1.6,0.8-2.5,0.8c-0.9,0-1.7-0.3-2.4-0.7V8.3
			c0-0.3,0.2-0.5,0.5-0.5H38z M34.6,6.3V4.5c0-0.2,0.2-0.4,0.4-0.4h1.9c0.2,0,0.4,0.2,0.4,0.4v1.9c0,0.2-0.2,0.4-0.4,0.4h-2
			C34.8,6.7,34.6,6.6,34.6,6.3z M38.3,6.8c0-0.1,0.1-0.3,0.1-0.5V4.5c0-0.8-0.6-1.4-1.4-1.4h-1.9c-0.8,0-1.4,0.6-1.4,1.4v1.9
			c0,0.2,0,0.3,0.1,0.5c-0.7,0.2-1.2,0.8-1.2,1.5v0.6c-0.7-0.8-1.1-1.8-1.1-2.9c0-2.5,2-4.5,4.5-4.5c2.5,0,4.5,2,4.5,4.5
			c0,1-0.4,2-1,2.8V8.3C39.5,7.5,39,6.9,38.3,6.8z"/>
	</g>
	<circle class="st1" cx="21" cy="20.9" r="9.5"/>
	<g>
		<path class="st2" d="M23.1,22.3h-4.2c-0.8,0-1.4-0.6-1.4-1.4v-4.2c0-0.8,0.6-1.4,1.4-1.4h4.2c0.8,0,1.4,0.6,1.4,1.4v4.2
			C24.5,21.7,23.9,22.3,23.1,22.3z M23.2,23.3V25h-4.3v-1.7c0,0,0.1,0,0.1,0L23.2,23.3C23.1,23.3,23.1,23.3,23.2,23.3z M26.3,26
			c1,0,1.7,0.4,2,0.8C26.6,29,24,30.3,21,30.3c-3,0-5.6-1.4-7.3-3.5c0.3-0.4,1-0.9,2-0.9H26.3z M26.3,25h-2.2v-1.9
			c0.8-0.4,1.3-1.2,1.3-2.2v-4.2c0-1.3-1.1-2.4-2.4-2.4h-4.2c-1.3,0-2.4,1.1-2.4,2.4v4.2c0,0.9,0.5,1.8,1.3,2.2V25h-2.2
			c-1.1,0-2.1,0.4-2.6,1c-1-1.5-1.5-3.3-1.5-5.2c0-5.2,4.3-9.5,9.5-9.5c5.2,0,9.5,4.3,9.5,9.5c0,1.9-0.6,3.7-1.5,5.2
			C28.4,25.4,27.4,25,26.3,25z"/>
	</g>
</g>
</svg>
